<?xml version="1.0" encoding="UTF-8" standalone="no"?>
<svg width="654px" height="894px" viewBox="0 0 654 894" version="1.1" xmlns="http://www.w3.org/2000/svg" xmlns:xlink="http://www.w3.org/1999/xlink">
    <!-- Generator: Sketch 46.2 (44496) - http://www.bohemiancoding.com/sketch -->
    <title>Map of ACC.072016</title>
    <desc>Created with Sketch.</desc>
    <defs></defs>
    <g id="Page-1" stroke="none" stroke-width="1" fill="none" fill-rule="evenodd">
        <g id="Tablet" transform="translate(-57.000000, -99.000000)">
            <g id="Map-of-ACC.072016" transform="translate(58.000000, 100.000000)">
                <polygon id="Stroke-4" stroke="#000000" stroke-width="1.2" stroke-linecap="round" stroke-linejoin="round" points="244 587 325 587 325 498 244 498"></polygon>
                <text id="Breakroom" font-family="ArialMT, Arial" font-size="8.275" font-weight="normal" letter-spacing="-0.273075" fill="#000000">
                    <tspan x="262" y="579">B</tspan>
                    <tspan x="267.246285" y="579" letter-spacing="0.239975">r</tspan>
                    <tspan x="270.2419" y="579" letter-spacing="-0.0993">ea</tspan>
                    <tspan x="279.247621" y="579" letter-spacing="-0.388925">k</tspan>
                    <tspan x="282.996196" y="579" letter-spacing="-0.504775">r</tspan>
                    <tspan x="285.247061" y="579" letter-spacing="-0.0993">oo</tspan>
                    <tspan x="294.252782" y="579">m</tspan>
                </text>
                <polyline id="Stroke-5" stroke="#000000" stroke-width="1.2" stroke-linecap="round" stroke-linejoin="round" points="0 0 326 0 326 269.679655 618.27828 269.679655 618.27828 549.716108 652 549.716108 652 892 460.898566 892 460.898566 850.511187 303.518853 850.511187 303.518853 705.305081 224.823154 705.305081 224.823154 637.879243"></polyline>
                <polygon id="Stroke-7" stroke="#000000" stroke-width="1.2" stroke-linecap="round" stroke-linejoin="round" points="4 108 58 108 58 60 4 60"></polygon>
                <text id="3130" font-family="ArialMT, Arial" font-size="8.25" font-weight="normal" letter-spacing="-0.087" fill="#000000">
                    <tspan x="21" y="83">3130</tspan>
                </text>
                <polygon id="Stroke-9" stroke="#000000" stroke-width="1.2" stroke-linecap="round" stroke-linejoin="round" points="4 150 58 150 58 112 4 112"></polygon>
                <text id="3132" font-family="ArialMT, Arial" font-size="8.25" font-weight="normal" letter-spacing="-0.087" fill="#000000">
                    <tspan x="21" y="130">3132</tspan>
                </text>
                <polygon id="Stroke-11" stroke="#000000" stroke-width="1.2" stroke-linecap="round" stroke-linejoin="round" points="4 201 58 201 58 153 4 153"></polygon>
                <text id="3134" font-family="ArialMT, Arial" font-size="8.25" font-weight="normal" letter-spacing="-0.087" fill="#000000">
                    <tspan x="21" y="176">3134</tspan>
                </text>
                <polygon id="Stroke-13" stroke="#000000" stroke-width="1.2" stroke-linecap="round" stroke-linejoin="round" points="4 247 58 247 58 206 4 206"></polygon>
                <text id="3136" font-family="ArialMT, Arial" font-size="8.25" font-weight="normal" letter-spacing="-0.087" fill="#000000">
                    <tspan x="21" y="226">3136</tspan>
                </text>
                <polygon id="Stroke-15" stroke="#000000" stroke-width="1.2" stroke-linecap="round" stroke-linejoin="round" points="4 293 58 293 58 252 4 252"></polygon>
                <text id="3138" font-family="ArialMT, Arial" font-size="8.275" font-weight="normal" letter-spacing="-0.101" fill="#000000">
                    <tspan x="21" y="272">3138</tspan>
                </text>
                <polygon id="Stroke-17" stroke="#000000" stroke-width="1.2" stroke-linecap="round" stroke-linejoin="round" points="4 339 58 339 58 298 4 298"></polygon>
                <text id="3140" font-family="ArialMT, Arial" font-size="8.25" font-weight="normal" letter-spacing="-0.087" fill="#000000">
                    <tspan x="21" y="318">3140</tspan>
                </text>
                <g id="3128" transform="translate(4.000000, 5.000000)">
                    <polygon id="Stroke-19" stroke="#000000" stroke-width="1.2" stroke-linecap="round" stroke-linejoin="round" points="0 51 67 51 67 0 0 0"></polygon>
                    <text id="Conference-" font-family="ArialMT, Arial" font-size="8.275" font-weight="normal" letter-spacing="0.01655" fill="#000000">
                        <tspan x="10" y="13">C</tspan>
                        <tspan x="15.9924899" y="13" letter-spacing="-0.0993">on</tspan>
                        <tspan x="24.9982112" y="13" letter-spacing="-0.04965">f</tspan>
                        <tspan x="27.2476213" y="13" letter-spacing="-0.852325">e</tspan>
                        <tspan x="30.9974569" y="13" letter-spacing="0.239975">r</tspan>
                        <tspan x="33.9930716" y="13" letter-spacing="-0.0993">en</tspan>
                        <tspan x="42.9987929" y="13" letter-spacing="-0.388925">c</tspan>
                        <tspan x="46.7473679" y="13" letter-spacing="-0.0993">e</tspan>
                        <tspan x="51.2502285" y="13"> </tspan>
                    </text>
                    <text id="Room" font-family="ArialMT, Arial" font-size="8.25" font-weight="normal" letter-spacing="0.033" fill="#000000">
                        <tspan x="22" y="24">R</tspan>
                        <tspan x="27.9908857" y="24" letter-spacing="-0.09075">oo</tspan>
                        <tspan x="36.9858994" y="24">m</tspan>
                    </text>
                    <text font-family="ArialMT, Arial" font-size="8.25" font-weight="normal" letter-spacing="-0.087" fill="#000000">
                        <tspan x="24" y="36">3128</tspan>
                    </text>
                </g>
                <polygon id="Stroke-21" stroke="#000000" stroke-width="1.2" stroke-linecap="round" stroke-linejoin="round" points="244 497 323 497 323 456 244 456"></polygon>
                <text id="3102" font-family="ArialMT, Arial" font-size="8.25" font-weight="normal" letter-spacing="-0.087" fill="#000000">
                    <tspan x="274" y="475">3102</tspan>
                </text>
                <polygon id="Stroke-23" stroke="#000000" stroke-width="1.2" stroke-linecap="round" stroke-linejoin="round" points="244 453 323 453 323 412 244 412"></polygon>
                <text id="3104" font-family="ArialMT, Arial" font-size="8.275" font-weight="normal" letter-spacing="-0.101" fill="#000000">
                    <tspan x="274" y="432">3104</tspan>
                </text>
                <polygon id="Stroke-25" stroke="#000000" stroke-width="1.2" stroke-linecap="round" stroke-linejoin="round" points="560 367 614 367 614 326 560 326"></polygon>
                <text id="3218" font-family="ArialMT, Arial" font-size="8.275" font-weight="normal" letter-spacing="-0.101" fill="#000000">
                    <tspan x="577" y="346">3218</tspan>
                </text>
                <polygon id="Stroke-27" stroke="#000000" stroke-width="1.2" stroke-linecap="round" stroke-linejoin="round" points="244 410 323 410 323 369 244 369"></polygon>
                <text id="3106" font-family="ArialMT, Arial" font-size="8.25" font-weight="normal" letter-spacing="-0.087" fill="#000000">
                    <tspan x="274" y="389">3106</tspan>
                </text>
                <polygon id="Stroke-29" stroke="#000000" stroke-width="1.2" stroke-linecap="round" stroke-linejoin="round" points="246 312 320 312 320 271 246 271"></polygon>
                <text id="3108" font-family="ArialMT, Arial" font-size="8.25" font-weight="normal" letter-spacing="-0.087" fill="#000000">
                    <tspan x="273" y="291">3108</tspan>
                </text>
                <polygon id="Stroke-31" stroke="#000000" stroke-width="1.2" stroke-linecap="round" stroke-linejoin="round" points="246 267 319 267 319 226 246 226"></polygon>
                <text id="3110" font-family="ArialMT, Arial" font-size="8.25" font-weight="normal" letter-spacing="-0.062" fill="#000000">
                    <tspan x="272" y="246">3110</tspan>
                </text>
                <polygon id="Stroke-33" stroke="#000000" stroke-width="1.2" stroke-linecap="round" stroke-linejoin="round" points="245 224 319 224 319 183 245 183"></polygon>
                <text id="3112" font-family="ArialMT, Arial" font-size="8.25" font-weight="normal" letter-spacing="-0.062" fill="#000000">
                    <tspan x="272" y="202">3112</tspan>
                </text>
                <polygon id="Stroke-35" stroke="#000000" stroke-width="1.2" stroke-linecap="round" stroke-linejoin="round" points="245 180 319 180 319 139 245 139"></polygon>
                <text id="3114" font-family="ArialMT, Arial" font-size="8.275" font-weight="normal" letter-spacing="-0.0759" fill="#000000">
                    <tspan x="272" y="158">3114</tspan>
                </text>
                <polygon id="Stroke-37" stroke="#000000" stroke-width="1.2" stroke-linecap="round" stroke-linejoin="round" points="244 136 318 136 318 95 244 95"></polygon>
                <text id="3116" font-family="ArialMT, Arial" font-size="8.275" font-weight="normal" letter-spacing="-0.0759" fill="#000000">
                    <tspan x="271" y="114">3116</tspan>
                </text>
                <polygon id="Stroke-39" stroke="#000000" stroke-width="1.2" stroke-linecap="round" stroke-linejoin="round" points="244 92 318 92 318 59 244 59"></polygon>
                <text id="3118" font-family="ArialMT, Arial" font-size="8.25" font-weight="normal" letter-spacing="-0.062" fill="#000000">
                    <tspan x="271" y="74">3118</tspan>
                </text>
                <polygon id="Stroke-41" stroke="#000000" stroke-width="1.2" stroke-linecap="round" stroke-linejoin="round" points="327 312 386 312 386 274 327 274"></polygon>
                <text id="3228" font-family="ArialMT, Arial" font-size="8.275" font-weight="normal" letter-spacing="-0.101" fill="#000000">
                    <tspan x="347" y="281">3228</tspan>
                </text>
                <text id="Disease-" font-family="ArialMT, Arial" font-size="8.25" font-weight="normal" letter-spacing="0.033" fill="#000000">
                    <tspan x="340" y="293">D</tspan>
                    <tspan x="345.990886" y="293" letter-spacing="-0.33">i</tspan>
                    <tspan x="347.493771" y="293" letter-spacing="-0.37125">s</tspan>
                    <tspan x="351.247521" y="293" letter-spacing="-0.09075">ea</tspan>
                    <tspan x="360.242535" y="293" letter-spacing="0.363">s</tspan>
                    <tspan x="364.730535" y="293" letter-spacing="-0.09075">e</tspan>
                    <tspan x="369.228042" y="293"> </tspan>
                </text>
                <text id="Mgmt" font-family="ArialMT, Arial" font-size="8.25" font-weight="normal" letter-spacing="-0.099" fill="#000000">
                    <tspan x="346" y="304">M</tspan>
                    <tspan x="352.773314" y="304" letter-spacing="-0.09075">g</tspan>
                    <tspan x="357.270821" y="304">m</tspan>
                    <tspan x="364.044136" y="304">t</tspan>
                </text>
                <polygon id="Fill-42" fill="#FFFFFF" points="544 322 613 322 613 272 544 272"></polygon>
                <polygon id="Stroke-43" stroke="#000000" stroke-width="1.2" stroke-linecap="round" stroke-linejoin="round" points="544 322 613 322 613 272 544 272"></polygon>
                <text id="3220" font-family="ArialMT, Arial" font-size="8.25" font-weight="normal" letter-spacing="-0.087" fill="#000000">
                    <tspan x="569" y="285">3220</tspan>
                </text>
                <text id="Disease-" font-family="ArialMT, Arial" font-size="8.25" font-weight="normal" letter-spacing="0.033" fill="#000000">
                    <tspan x="563" y="296">D</tspan>
                    <tspan x="568.990886" y="296" letter-spacing="-0.33">i</tspan>
                    <tspan x="570.493771" y="296" letter-spacing="-0.37125">s</tspan>
                    <tspan x="574.247521" y="296" letter-spacing="-0.09075">ea</tspan>
                    <tspan x="583.242535" y="296" letter-spacing="0.363">s</tspan>
                    <tspan x="587.730535" y="296" letter-spacing="-0.09075">e</tspan>
                    <tspan x="592.228042" y="296"> </tspan>
                </text>
                <text id="Management" font-family="ArialMT, Arial" font-size="8.275" font-weight="normal" letter-spacing="-0.140675" fill="#000000">
                    <tspan x="552" y="308">M</tspan>
                    <tspan x="558.752465" y="308" letter-spacing="-0.0993">anage</tspan>
                    <tspan x="581.266768" y="308" letter-spacing="-0.8937">m</tspan>
                    <tspan x="587.266208" y="308" letter-spacing="-0.0993">en</tspan>
                    <tspan x="596.271929" y="308">t</tspan>
                </text>
                <polygon id="Stroke-45" stroke="#000000" stroke-width="1.2" stroke-linecap="round" stroke-linejoin="round" points="217 55 318 55 318 3 217 3"></polygon>
                <text id="3120" font-family="ArialMT, Arial" font-size="8.25" font-weight="normal" letter-spacing="-0.087" fill="#000000">
                    <tspan x="258" y="22">3120</tspan>
                </text>
                <text id="Resident-Workroom" font-family="ArialMT, Arial" font-size="8.275" font-weight="normal" letter-spacing="0.01655" fill="#000000">
                    <tspan x="227" y="34">R</tspan>
                    <tspan x="232.99249" y="34" letter-spacing="-0.0993">e</tspan>
                    <tspan x="237.495351" y="34" letter-spacing="-0.388925">s</tspan>
                    <tspan x="241.243926" y="34" letter-spacing="-0.339275">i</tspan>
                    <tspan x="242.743091" y="34" letter-spacing="-0.0993">den</tspan>
                    <tspan x="256.251672" y="34" letter-spacing="-0.04965">t </tspan>
                    <tspan x="260.750493" y="34" letter-spacing="-0.31445">W</tspan>
                    <tspan x="268.096882" y="34" letter-spacing="-0.0993">o</tspan>
                    <tspan x="272.599743" y="34" letter-spacing="0.239975">r</tspan>
                    <tspan x="275.595358" y="34" letter-spacing="-0.388925">k</tspan>
                    <tspan x="279.343933" y="34" letter-spacing="0.239975">r</tspan>
                    <tspan x="282.339547" y="34" letter-spacing="-0.852325">o</tspan>
                    <tspan x="286.089383" y="34" letter-spacing="-0.0993">o</tspan>
                    <tspan x="290.592244" y="34">m</tspan>
                </text>
                <polygon id="Stroke-47" stroke="#000000" stroke-width="1.2" stroke-linecap="round" stroke-linejoin="round" points="91 401 129 401 129 360 91 360"></polygon>
                <text id="3149" font-family="ArialMT, Arial" font-size="8.25" font-weight="normal" letter-spacing="-0.087" fill="#000000">
                    <tspan x="100" y="374">3149</tspan>
                </text>
                <text id="Consult" font-family="ArialMT, Arial" font-size="8.275" font-weight="normal" letter-spacing="0.041375" fill="#000000">
                    <tspan x="95" y="385">C</tspan>
                    <tspan x="101.017315" y="385" letter-spacing="-0.0993">on</tspan>
                    <tspan x="110.023036" y="385" letter-spacing="-0.388925">s</tspan>
                    <tspan x="113.771611" y="385" letter-spacing="-0.0993">u</tspan>
                    <tspan x="118.274472" y="385" letter-spacing="-0.339275">l</tspan>
                    <tspan x="119.773637" y="385">t</tspan>
                </text>
                <polygon id="Stroke-49" stroke="#000000" stroke-width="1.2" stroke-linecap="round" stroke-linejoin="round" points="125 340 179 340 179 283 125 283"></polygon>
                <text id="3149" font-family="ArialMT, Arial" font-size="8.25" font-weight="normal" letter-spacing="-0.087" fill="#000000">
                    <tspan x="142" y="305">3149</tspan>
                </text>
                <text id="Nurse" font-family="ArialMT, Arial" font-size="8.25" font-weight="normal" letter-spacing="0.033" fill="#000000">
                    <tspan x="140" y="316">N</tspan>
                    <tspan x="145.990886" y="316" letter-spacing="-0.09075">u</tspan>
                    <tspan x="150.488393" y="316" letter-spacing="-0.495">r</tspan>
                    <tspan x="152.740707" y="316" letter-spacing="0.363">s</tspan>
                    <tspan x="157.228707" y="316">e</tspan>
                </text>
                <polygon id="Stroke-51" stroke="#000000" stroke-width="1.2" stroke-linecap="round" stroke-linejoin="round" points="328 641 382 641 382 592 328 592"></polygon>
                <text id="3240" font-family="ArialMT, Arial" font-size="8.25" font-weight="normal" letter-spacing="-0.087" fill="#000000">
                    <tspan x="345" y="610">3240</tspan>
                </text>
                <text id="Lab" font-family="ArialMT, Arial" font-size="8.275" font-weight="normal" letter-spacing="-0.101" fill="#000000">
                    <tspan x="348" y="622">Lab</tspan>
                </text>
                <polygon id="Stroke-53" stroke="#000000" stroke-width="1.2" stroke-linecap="round" stroke-linejoin="round" points="327 589 381 589 381 548 327 548"></polygon>
                <text id="3238" font-family="ArialMT, Arial" font-size="8.25" font-weight="normal" letter-spacing="-0.087" fill="#000000">
                    <tspan x="344" y="568">3238</tspan>
                </text>
                <polygon id="Stroke-55" stroke="#000000" stroke-width="1.2" stroke-linecap="round" stroke-linejoin="round" points="327 544 381 544 381 503 327 503"></polygon>
                <text id="3236" font-family="ArialMT, Arial" font-size="8.25" font-weight="normal" letter-spacing="-0.087" fill="#000000">
                    <tspan x="344" y="523">3236</tspan>
                </text>
                <polygon id="Stroke-57" stroke="#000000" stroke-width="1.2" stroke-linecap="round" stroke-linejoin="round" points="327 499 381 499 381 458 327 458"></polygon>
                <text id="3234" font-family="ArialMT, Arial" font-size="8.25" font-weight="normal" letter-spacing="-0.087" fill="#000000">
                    <tspan x="344" y="478">3234</tspan>
                </text>
                <polygon id="Stroke-59" stroke="#000000" stroke-width="1.2" stroke-linecap="round" stroke-linejoin="round" points="327 454 381 454 381 413 327 413"></polygon>
                <text id="3232" font-family="ArialMT, Arial" font-size="8.25" font-weight="normal" letter-spacing="-0.087" fill="#000000">
                    <tspan x="344" y="433">3232</tspan>
                </text>
                <polygon id="Stroke-61" stroke="#000000" stroke-width="1.2" stroke-linecap="round" stroke-linejoin="round" points="327 408 381 408 381 367 327 367"></polygon>
                <text id="3230" font-family="ArialMT, Arial" font-size="8.25" font-weight="normal" letter-spacing="-0.087" fill="#000000">
                    <tspan x="344" y="387">3230</tspan>
                </text>
                <path d="M125,338.163991 L122.262362,338.163991 L122.262362,339 L125,339 L125,338.163991 Z M125,284 L124.158562,284 L124.158562,338.163991 L125,338.163991 L125,284 Z M96,284 L96,338.163991 L96.8414385,338.163991 L96.8414385,284 L96,284 Z M98.7494892,338.163991 L96,338.163991 L96,339 L98.7494892,339 L98.7494892,338.163991 Z" id="Fill-62" fill="#FFFFFF"></path>
                <path d="M125,338.163991 L122.262362,338.163991 L122.262362,339 L125,339 L125,338.163991 Z M125,284 L124.158562,284 L124.158562,338.163991 L125,338.163991 L125,284 Z M96,284 L96,338.163991 L96.8414385,338.163991 L96.8414385,284 L96,284 Z M98.7494892,338.163991 L96,338.163991 L96,339 L98.7494892,339 L98.7494892,338.163991 Z" id="Stroke-63" stroke="#000000" stroke-width="1.2" stroke-linecap="round" stroke-linejoin="round"></path>
                <polygon id="Fill-64" fill="#FFFFFF" points="99 338 99.70866 338 99.70866 315 99 315"></polygon>
                <path d="M99,315 C111.543347,315 121.779738,325.236391 122,338 L99,315 Z M99.8230847,338 L99,338 L99,315 L99.8230847,315 L99.8230847,338 Z" id="Stroke-65" stroke="#000000" stroke-width="1.2" stroke-linecap="round" stroke-linejoin="round"></path>
                <path d="M117,285 L104,285 L105.295414,287.998236 L104,298.333333 C104,302.013521 106.911817,305 110.5,305 C114.088183,305 117,302.013521 117,298.333333 L115.693122,287.998236 L117,285 Z M106.212522,296.992945 C106.212522,300.308642 108.126984,303.001176 110.5,303.001176 C112.861552,303.001176 114.787478,300.308642 114.787478,296.992945 C114.787478,293.689006 112.861552,290.996473 110.5,290.996473 C108.126984,290.996473 106.212522,293.689006 106.212522,296.992945 Z" id="Stroke-67" stroke="#000000" stroke-width="1.2" stroke-linecap="round" stroke-linejoin="round"></path>
                <path d="M209,339.154203 L206.261243,339.154203 L206.261243,340 L209,340 L209,339.154203 Z M209,286 L208.170074,286 L208.170074,339.154203 L209,339.154203 L209,286 Z M180,286 L180,339.154203 L180.829926,339.154203 L180.829926,286 L180,286 Z M182.738757,339.154203 L180,339.154203 L180,340 L182.738757,340 L182.738757,339.154203 Z" id="Fill-68" fill="#FFFFFF"></path>
                <path d="M209,339.154203 L206.261243,339.154203 L206.261243,340 L209,340 L209,339.154203 Z M209,286 L208.170074,286 L208.170074,339.154203 L209,339.154203 L209,286 Z M180,286 L180,339.154203 L180.829926,339.154203 L180.829926,286 L180,286 Z M182.738757,339.154203 L180,339.154203 L180,340 L182.738757,340 L182.738757,339.154203 Z" id="Stroke-69" stroke="#000000" stroke-width="1.2" stroke-linecap="round" stroke-linejoin="round"></path>
                <polygon id="Fill-70" fill="#FFFFFF" points="183 338 183.70866 338 183.70866 315 183 315"></polygon>
                <path d="M183,315 C195.543347,315 205.779738,325.236391 206,338 L183,315 Z M183.823085,338 L183,338 L183,315 L183.823085,315 L183.823085,338 Z" id="Stroke-71" stroke="#000000" stroke-width="1.2" stroke-linecap="round" stroke-linejoin="round"></path>
                <path d="M201,287 L188,287 L189.295414,290 L188,300.329412 C188,304.023529 190.911817,307 194.5,307 C198.088183,307 201,304.023529 201,300.329412 L199.704586,290 L201,287 Z M190.212522,299 C190.212522,302.317647 192.126984,305 194.5,305 C196.873016,305 198.787478,302.317647 198.787478,299 C198.787478,295.682353 196.873016,293 194.5,293 C192.126984,293 190.212522,295.682353 190.212522,299 Z" id="Stroke-73" stroke="#000000" stroke-width="1.2" stroke-linecap="round" stroke-linejoin="round"></path>
                <path d="M452,609.176713 L449.261243,609.176713 L449.261243,610 L452,610 L452,609.176713 Z M452,570 L451.170074,570 L451.170074,609.176713 L452,609.176713 L452,570 Z M423,570 L423,609.176713 L423.829926,609.176713 L423.829926,570 L423,570 Z M425.738757,609.176713 L423,609.176713 L423,610 L425.738757,610 L425.738757,609.176713 Z" id="Fill-74" fill="#FFFFFF"></path>
                <path d="M452,609.176713 L449.261243,609.176713 L449.261243,610 L452,610 L452,609.176713 Z M452,570 L451.170074,570 L451.170074,609.176713 L452,609.176713 L452,570 Z M423,570 L423,609.176713 L423.829926,609.176713 L423.829926,570 L423,570 Z M425.738757,609.176713 L423,609.176713 L423,610 L425.738757,610 L425.738757,609.176713 Z" id="Stroke-75" stroke="#000000" stroke-width="1.2" stroke-linecap="round" stroke-linejoin="round"></path>
                <polygon id="Fill-76" fill="#FFFFFF" points="425 610 425.70868 610 425.70868 586 425 586"></polygon>
                <path d="M425,586 C437.543347,586 447.779738,596.676071 448,610 L425,586 Z M425.823085,610 L425,610 L425,586 L425.823085,586 L425.823085,610 Z" id="Stroke-77" stroke="#000000" stroke-width="1.2" stroke-linecap="round" stroke-linejoin="round"></path>
                <path d="M443,571 L430,571 L431.295414,573.998236 L430,584.333333 C430,588.013521 432.911817,591 436.5,591 C440.088183,591 443,588.013521 443,584.333333 L441.704586,573.998236 L443,571 Z M432.212522,582.992945 C432.212522,586.308642 434.126984,588.989418 436.5,588.989418 C438.873016,588.989418 440.787478,586.308642 440.787478,582.992945 C440.787478,579.677249 438.873016,576.996473 436.5,576.996473 C434.126984,576.996473 432.212522,579.677249 432.212522,582.992945 Z" id="Stroke-79" stroke="#000000" stroke-width="1.2" stroke-linecap="round" stroke-linejoin="round"></path>
                <path d="M522,609.176713 L519.250511,609.176713 L519.250511,610 L522,610 L522,609.176713 Z M522,570 L521.158562,570 L521.158562,609.176713 L522,609.176713 L522,570 Z M493,570 L493,609.176713 L493.841438,609.176713 L493.841438,570 L493,570 Z M495.737638,609.176713 L493,609.176713 L493,610 L495.737638,610 L495.737638,609.176713 Z" id="Fill-80" fill="#FFFFFF"></path>
                <path d="M522,609.176713 L519.250511,609.176713 L519.250511,610 L522,610 L522,609.176713 Z M522,570 L521.158562,570 L521.158562,609.176713 L522,609.176713 L522,570 Z M493,570 L493,609.176713 L493.841438,609.176713 L493.841438,570 L493,570 Z M495.737638,609.176713 L493,609.176713 L493,610 L495.737638,610 L495.737638,609.176713 Z" id="Stroke-81" stroke="#000000" stroke-width="1.2" stroke-linecap="round" stroke-linejoin="round"></path>
                <polygon id="Fill-82" fill="#FFFFFF" points="496 610 496.70868 610 496.70868 586 496 586"></polygon>
                <path d="M496,586 C508.55494,586 518.779738,596.676071 519,610 L496,586 Z M496.823085,610 L496,610 L496,586 L496.823085,586 L496.823085,610 Z" id="Stroke-83" stroke="#000000" stroke-width="1.2" stroke-linecap="round" stroke-linejoin="round"></path>
                <path d="M514,571 L501,571 L502.306878,573.998236 L501,584.333333 C501,588.013521 503.911817,591 507.5,591 C511.088183,591 514,588.013521 514,584.333333 L512.704586,573.998236 L514,571 Z M503.212522,582.992945 C503.212522,586.308642 505.138448,588.989418 507.5,588.989418 C509.873016,588.989418 511.798942,586.308642 511.798942,582.992945 C511.798942,579.677249 509.873016,576.996473 507.5,576.996473 C505.138448,576.996473 503.212522,579.677249 503.212522,582.992945 Z" id="Stroke-85" stroke="#000000" stroke-width="1.2" stroke-linecap="round" stroke-linejoin="round"></path>
                <path d="M324,537.165197 L317.642229,537.165197 L317.642229,538 L324,538 L324,537.165197 Z M324,498 L323.167155,498 L323.167155,537.165197 L324,537.165197 L324,498 Z M288,498 L288,537.165197 L288.832845,537.165197 L288.832845,498 L288,498 Z M294.369501,537.165197 L288,537.165197 L288,538 L294.369501,538 L294.369501,537.165197 Z" id="Fill-86" fill="#FFFFFF"></path>
                <path d="M324,537.165197 L317.642229,537.165197 L317.642229,538 L324,538 L324,537.165197 Z M324,498 L323.167155,498 L323.167155,537.165197 L324,537.165197 L324,498 Z M288,498 L288,537.165197 L288.832845,537.165197 L288.832845,498 L288,498 Z M294.369501,537.165197 L288,537.165197 L288,538 L294.369501,538 L294.369501,537.165197 Z" id="Stroke-87" stroke="#000000" stroke-width="1.2" stroke-linecap="round" stroke-linejoin="round"></path>
                <polygon id="Fill-88" fill="#FFFFFF" points="294 537 294.70868 537 294.70868 514 294 514"></polygon>
                <path d="M294,514 C306.543347,514 316.779738,524.236391 317,537 L294,514 Z M294.811492,537 L294,537 L294,514 L294.811492,514 L294.811492,537 Z" id="Stroke-89" stroke="#000000" stroke-width="1.2" stroke-linecap="round" stroke-linejoin="round"></path>
                <path d="M312,499 L299,499 L300.295414,501.998236 L299,512.333333 C299,516.013521 301.911817,519 305.5,519 C309.088183,519 312,516.013521 312,512.333333 L310.693122,501.998236 L312,499 Z M301.212522,511.004703 C301.212522,514.3204 303.126984,517.001176 305.5,517.001176 C307.861552,517.001176 309.787478,514.3204 309.787478,511.004703 C309.787478,507.689006 307.861552,505.00823 305.5,505.00823 C303.126984,505.00823 301.212522,507.689006 301.212522,511.004703 Z" id="Stroke-91" stroke="#000000" stroke-width="1.2" stroke-linecap="round" stroke-linejoin="round"></path>
                <polygon id="Stroke-93" stroke="#000000" stroke-width="1.2" stroke-linecap="round" stroke-linejoin="round" points="133 401 167 401 167 360 133 360"></polygon>
                <text id="3147" font-family="ArialMT, Arial" font-size="8.25" font-weight="normal" letter-spacing="-0.087" fill="#000000">
                    <tspan x="140" y="368">3147</tspan>
                </text>
                <text id="Care-" font-family="ArialMT, Arial" font-size="8.25" font-weight="normal" letter-spacing="0.05775" fill="#000000">
                    <tspan x="140" y="380">C</tspan>
                    <tspan x="146.015636" y="380" letter-spacing="-0.066">a</tspan>
                    <tspan x="150.537893" y="380" letter-spacing="-0.495">r</tspan>
                    <tspan x="152.790207" y="380" letter-spacing="-0.066">e</tspan>
                    <tspan x="157.312464" y="380"> </tspan>
                </text>
                <text id="Mgr" font-family="ArialMT, Arial" font-size="8.25" font-weight="normal" letter-spacing="-0.12375" fill="#000000">
                    <tspan x="142" y="391">M</tspan>
                    <tspan x="148.748564" y="391" letter-spacing="-0.09075">g</tspan>
                    <tspan x="153.246071" y="391">r</tspan>
                </text>
                <polygon id="Stroke-95" stroke="#000000" stroke-width="1.2" stroke-linecap="round" stroke-linejoin="round" points="171 401 205 401 205 360 171 360"></polygon>
                <text id="3145" font-family="ArialMT, Arial" font-size="8.25" font-weight="normal" letter-spacing="-0.087" fill="#000000">
                    <tspan x="178" y="374">3145</tspan>
                </text>
                <text id="Nurse" font-family="ArialMT, Arial" font-size="8.275" font-weight="normal" letter-spacing="0.01655" fill="#000000">
                    <tspan x="176" y="385">N</tspan>
                    <tspan x="181.99249" y="385" letter-spacing="-0.0993">u</tspan>
                    <tspan x="186.495351" y="385" letter-spacing="-0.504775">r</tspan>
                    <tspan x="188.746215" y="385" letter-spacing="0.355825">s</tspan>
                    <tspan x="193.23954" y="385">e</tspan>
                </text>
                <polygon id="Stroke-97" stroke="#000000" stroke-width="1.2" stroke-linecap="round" stroke-linejoin="round" points="151 444 205 444 205 403 151 403"></polygon>
                <text id="3105" font-family="ArialMT, Arial" font-size="8.25" font-weight="normal" letter-spacing="-0.087" fill="#000000">
                    <tspan x="168" y="417">3105</tspan>
                </text>
                <text id="Office" font-family="ArialMT, Arial" font-size="8.25" font-weight="normal" letter-spacing="-0.42075" fill="#000000">
                    <tspan x="166" y="429">O</tspan>
                    <tspan x="171.996364" y="429" letter-spacing="-0.04125">ff</tspan>
                    <tspan x="176.349045" y="429" letter-spacing="0.4125">i</tspan>
                    <tspan x="178.594431" y="429" letter-spacing="-0.37125">c</tspan>
                    <tspan x="182.348181" y="429">e</tspan>
                </text>
                <g id="3126" transform="translate(77.000000, 3.000000)">
                    <polygon id="Stroke-99" stroke="#000000" stroke-width="1.2" stroke-linecap="round" stroke-linejoin="round" points="0 52 39 52 39 0 0 0"></polygon>
                    <text font-family="ArialMT, Arial" font-size="8.275" font-weight="normal" letter-spacing="-0.0759" fill="#000000">
                        <tspan x="10" y="25">3126</tspan>
                    </text>
                </g>
                <polygon id="Stroke-101" stroke="#000000" stroke-width="1.2" stroke-linecap="round" stroke-linejoin="round" points="122 55 161 55 161 3 122 3"></polygon>
                <text id="3124" font-family="ArialMT, Arial" font-size="8.25" font-weight="normal" letter-spacing="-0.087" fill="#000000">
                    <tspan x="131" y="28">3124</tspan>
                </text>
                <polygon id="Stroke-103" stroke="#000000" stroke-width="1.2" stroke-linecap="round" stroke-linejoin="round" points="166 55 209 55 209 3 166 3"></polygon>
                <text id="3122" font-family="ArialMT, Arial" font-size="8.275" font-weight="normal" letter-spacing="-0.101" fill="#000000">
                    <tspan x="178" y="28">3122</tspan>
                </text>
                <g id="3226" transform="translate(395.000000, 273.000000)">
                    <polygon id="Stroke-105" stroke="#000000" stroke-width="1.2" stroke-linecap="round" stroke-linejoin="round" points="0 38 43 38 43 0 0 0"></polygon>
                    <text font-family="ArialMT, Arial" font-size="8.25" font-weight="normal" letter-spacing="-0.087" fill="#000000">
                        <tspan x="12" y="13">3226</tspan>
                    </text>
                    <text id="Office" font-family="ArialMT, Arial" font-size="8.25" font-weight="normal" letter-spacing="-0.42075" fill="#000000">
                        <tspan x="10" y="24">O</tspan>
                        <tspan x="15.9963643" y="24" letter-spacing="-0.04125">ff</tspan>
                        <tspan x="20.3490449" y="24" letter-spacing="0.4125">i</tspan>
                        <tspan x="22.5944307" y="24" letter-spacing="-0.37125">c</tspan>
                        <tspan x="26.3481807" y="24">e</tspan>
                    </text>
                </g>
                <polygon id="Stroke-107" stroke="#000000" stroke-width="1.2" stroke-linecap="round" stroke-linejoin="round" points="446 311 486 311 486 273 446 273"></polygon>
                <text id="3224" font-family="ArialMT, Arial" font-size="8.275" font-weight="normal" letter-spacing="-0.101" fill="#000000">
                    <tspan x="457" y="291">3224</tspan>
                </text>
                <polygon id="Stroke-109" stroke="#000000" stroke-width="1.2" stroke-linecap="round" stroke-linejoin="round" points="495 311 535 311 535 273 495 273"></polygon>
                <text id="3222" font-family="ArialMT, Arial" font-size="8.25" font-weight="normal" letter-spacing="-0.087" fill="#000000">
                    <tspan x="506" y="286">3222</tspan>
                </text>
                <text id="Office" font-family="ArialMT, Arial" font-size="8.25" font-weight="normal" letter-spacing="-0.42075" fill="#000000">
                    <tspan x="504" y="297">O</tspan>
                    <tspan x="509.996364" y="297" letter-spacing="-0.04125">ff</tspan>
                    <tspan x="514.349045" y="297" letter-spacing="0.4125">i</tspan>
                    <tspan x="516.594431" y="297" letter-spacing="-0.37125">c</tspan>
                    <tspan x="520.348181" y="297">e</tspan>
                </text>
                <polygon id="Stroke-111" stroke="#000000" stroke-width="1.2" stroke-linecap="round" stroke-linejoin="round" points="560 413 614 413 614 372 560 372"></polygon>
                <text id="3216" font-family="ArialMT, Arial" font-size="8.25" font-weight="normal" letter-spacing="-0.087" fill="#000000">
                    <tspan x="577" y="391">3216</tspan>
                </text>
                <polygon id="Stroke-113" stroke="#000000" stroke-width="1.2" stroke-linecap="round" stroke-linejoin="round" points="560 458 614 458 614 417 560 417"></polygon>
                <text id="3214" font-family="ArialMT, Arial" font-size="8.25" font-weight="normal" letter-spacing="-0.087" fill="#000000">
                    <tspan x="577" y="437">3214</tspan>
                </text>
                <polygon id="Stroke-115" stroke="#000000" stroke-width="1.2" stroke-linecap="round" stroke-linejoin="round" points="560 504 614 504 614 463 560 463"></polygon>
                <text id="3212" font-family="ArialMT, Arial" font-size="8.275" font-weight="normal" letter-spacing="-0.101" fill="#000000">
                    <tspan x="577" y="483">3212</tspan>
                </text>
                <polygon id="Stroke-117" stroke="#000000" stroke-width="1.2" stroke-linecap="round" stroke-linejoin="round" points="560 562 614 562 614 508 560 508"></polygon>
                <text id="3210" font-family="ArialMT, Arial" font-size="8.25" font-weight="normal" letter-spacing="-0.087" fill="#000000">
                    <tspan x="577" y="535">3210</tspan>
                </text>
                <polygon id="Stroke-119" stroke="#000000" stroke-width="1.2" stroke-linecap="round" stroke-linejoin="round" points="560 608 614 608 614 567 560 567"></polygon>
                <text id="3208" font-family="ArialMT, Arial" font-size="8.25" font-weight="normal" letter-spacing="-0.087" fill="#000000">
                    <tspan x="577" y="587">3208</tspan>
                </text>
                <polygon id="Stroke-121" stroke="#000000" stroke-width="1.2" stroke-linecap="round" stroke-linejoin="round" points="560 653 614 653 614 612 560 612"></polygon>
                <text id="3206" font-family="ArialMT, Arial" font-size="8.25" font-weight="normal" letter-spacing="-0.087" fill="#000000">
                    <tspan x="577" y="632">3206</tspan>
                </text>
                <polygon id="Stroke-123" stroke="#000000" stroke-width="1.2" stroke-linecap="round" stroke-linejoin="round" points="560 699 614 699 614 658 560 658"></polygon>
                <text id="3204" font-family="ArialMT, Arial" font-size="8.275" font-weight="normal" letter-spacing="-0.101" fill="#000000">
                    <tspan x="577" y="678">3204</tspan>
                </text>
                <polygon id="Fill-124" fill="#FFFFFF" points="560 745 614 745 614 704 560 704"></polygon>
                <polygon id="Stroke-125" stroke="#000000" stroke-width="1.2" stroke-linecap="round" stroke-linejoin="round" points="560 745 614 745 614 704 560 704"></polygon>
                <text id="3202" font-family="ArialMT, Arial" font-size="8.25" font-weight="normal" letter-spacing="-0.087" fill="#000000">
                    <tspan x="577" y="724">3202</tspan>
                </text>
                <polygon id="Fill-126" fill="#FFFFFF" points="453 610 491 610 491 569 453 569"></polygon>
                <polygon id="Stroke-127" stroke="#000000" stroke-width="1.2" stroke-linecap="round" stroke-linejoin="round" points="453 610 491 610 491 569 453 569"></polygon>
                <text id="3243" font-family="ArialMT, Arial" font-size="8.25" font-weight="normal" letter-spacing="-0.087" fill="#000000">
                    <tspan x="463" y="584">3243</tspan>
                </text>
                <text id="Triage" font-family="ArialMT, Arial" font-size="8.25" font-weight="normal" letter-spacing="0.198" fill="#000000">
                    <tspan x="460" y="595">T</tspan>
                    <tspan x="464.931276" y="595" letter-spacing="-0.495">r</tspan>
                    <tspan x="467.183591" y="595" letter-spacing="-0.33">i</tspan>
                    <tspan x="468.686477" y="595" letter-spacing="-0.09075">ag</tspan>
                    <tspan x="477.68149" y="595">e</tspan>
                </text>
                <polygon id="Fill-128" fill="#FFFFFF" points="423 676 455 676 455 635 423 635"></polygon>
                <polygon id="Stroke-129" stroke="#000000" stroke-width="1.2" stroke-linecap="round" stroke-linejoin="round" points="423 676 455 676 455 635 423 635"></polygon>
                <text id="3249" font-family="ArialMT, Arial" font-size="8.25" font-weight="normal" letter-spacing="-0.087" fill="#000000">
                    <tspan x="428" y="649">3249</tspan>
                </text>
                <text id="RD" font-family="ArialMT, Arial" font-size="8.275" font-weight="normal" letter-spacing="0.0255" fill="#000000">
                    <tspan x="432" y="660">RD</tspan>
                </text>
                <polygon id="Stroke-131" stroke="#000000" stroke-width="1.2" stroke-linecap="round" stroke-linejoin="round" points="459 676 491 676 491 635 459 635"></polygon>
                <text id="3247" font-family="ArialMT, Arial" font-size="8.25" font-weight="normal" letter-spacing="-0.087" fill="#000000">
                    <tspan x="465" y="649">3247</tspan>
                </text>
                <text id="Office" font-family="ArialMT, Arial" font-size="8.275" font-weight="normal" letter-spacing="-0.438575" fill="#000000">
                    <tspan x="463" y="660">O</tspan>
                    <tspan x="468.997985" y="660" letter-spacing="-0.04965">ff</tspan>
                    <tspan x="473.347306" y="660" letter-spacing="0.405475">i</tspan>
                    <tspan x="475.591221" y="660" letter-spacing="-0.388925">c</tspan>
                    <tspan x="479.339796" y="660">e</tspan>
                </text>
                <polygon id="Stroke-133" stroke="#000000" stroke-width="1.2" stroke-linecap="round" stroke-linejoin="round" points="494 676 526 676 526 635 494 635"></polygon>
                <text id="3245" font-family="ArialMT, Arial" font-size="8.25" font-weight="normal" letter-spacing="-0.087" fill="#000000">
                    <tspan x="500" y="649">3245</tspan>
                </text>
                <text id="Nurse" font-family="ArialMT, Arial" font-size="8.275" font-weight="normal" letter-spacing="0.041375" fill="#000000">
                    <tspan x="498" y="660">N</tspan>
                    <tspan x="504.017315" y="660" letter-spacing="-0.0993">u</tspan>
                    <tspan x="508.520176" y="660" letter-spacing="-0.504775">r</tspan>
                    <tspan x="510.77104" y="660" letter-spacing="0.355825">s</tspan>
                    <tspan x="515.264365" y="660">e</tspan>
                </text>
                <polygon id="Stroke-135" stroke="#000000" stroke-width="1.2" stroke-linecap="round" stroke-linejoin="round" points="421 481 516 481 516 447 421 447"></polygon>
                <text id="3215" font-family="ArialMT, Arial" font-size="8.25" font-weight="normal" letter-spacing="-0.087" fill="#000000">
                    <tspan x="459" y="458">3215</tspan>
                </text>
                <text id="Utility" font-family="ArialMT, Arial" font-size="8.25" font-weight="normal" letter-spacing="0.05775" fill="#000000">
                    <tspan x="458" y="469">U</tspan>
                    <tspan x="464.015636" y="469">t</tspan>
                    <tspan x="466.30775" y="469" letter-spacing="-0.32175">i</tspan>
                    <tspan x="467.818886" y="469" letter-spacing="-0.30525">l</tspan>
                    <tspan x="469.346521" y="469" letter-spacing="0.43725">i</tspan>
                    <tspan x="471.616657" y="469">ty</tspan>
                </text>
                <polygon id="Stroke-137" stroke="#000000" stroke-width="1.2" stroke-linecap="round" stroke-linejoin="round" points="421 443 516 443 516 379 421 379"></polygon>
                <text id="3217" font-family="ArialMT, Arial" font-size="8.25" font-weight="normal" letter-spacing="-0.087" fill="#000000">
                    <tspan x="459" y="399">3217</tspan>
                </text>
                <text id="Disease-" font-family="ArialMT, Arial" font-size="8.275" font-weight="normal" letter-spacing="0.041375" fill="#000000">
                    <tspan x="452" y="410">D</tspan>
                    <tspan x="458.017315" y="410" letter-spacing="-0.339275">i</tspan>
                    <tspan x="459.51648" y="410" letter-spacing="-0.388925">s</tspan>
                    <tspan x="463.265055" y="410" letter-spacing="-0.0993">ea</tspan>
                    <tspan x="472.270776" y="410" letter-spacing="0.355825">s</tspan>
                    <tspan x="476.764101" y="410" letter-spacing="-0.0993">e</tspan>
                    <tspan x="481.266962" y="410"> </tspan>
                </text>
                <text id="Management" font-family="ArialMT, Arial" font-size="8.25" font-weight="normal" letter-spacing="-0.12375" fill="#000000">
                    <tspan x="442" y="422">M</tspan>
                    <tspan x="448.748564" y="422" letter-spacing="-0.09075">anage</tspan>
                    <tspan x="471.236099" y="422" letter-spacing="-0.8745">m</tspan>
                    <tspan x="477.233913" y="422" letter-spacing="-0.09075">en</tspan>
                    <tspan x="486.228927" y="422">t</tspan>
                </text>
                <polygon id="Stroke-139" stroke="#000000" stroke-width="1.2" stroke-linecap="round" stroke-linejoin="round" points="96 242 150 242 150 205 96 205"></polygon>
                <text id="3113" font-family="ArialMT, Arial" font-size="8.25" font-weight="normal" letter-spacing="-0.087" fill="#000000">
                    <tspan x="111" y="217">3113</tspan>
                </text>
                <text id="a" font-family="ArialMT, Arial" font-size="8.25" font-weight="normal" fill="#000000">
                    <tspan x="132" y="217">a</tspan>
                </text>
                <text id="Office" font-family="ArialMT, Arial" font-size="8.275" font-weight="normal" letter-spacing="-0.438575" fill="#000000">
                    <tspan x="112" y="229">O</tspan>
                    <tspan x="117.997985" y="229" letter-spacing="-0.04965">ff</tspan>
                    <tspan x="122.347306" y="229" letter-spacing="0.405475">i</tspan>
                    <tspan x="124.591221" y="229" letter-spacing="-0.388925">c</tspan>
                    <tspan x="128.339796" y="229">e</tspan>
                </text>
                <polygon id="Stroke-141" stroke="#000000" stroke-width="1.2" stroke-linecap="round" stroke-linejoin="round" points="154 242 208 242 208 205 154 205"></polygon>
                <text id="3111" font-family="ArialMT, Arial" font-size="8.25" font-weight="normal" letter-spacing="-0.087" fill="#000000">
                    <tspan x="169" y="223">3111</tspan>
                </text>
                <text id="a" font-family="ArialMT, Arial" font-size="8.25" font-weight="normal" fill="#000000">
                    <tspan x="190" y="223">a</tspan>
                </text>
                <polygon id="Stroke-143" stroke="#000000" stroke-width="1.2" stroke-linecap="round" stroke-linejoin="round" points="96 280 150 280 150 247 96 247"></polygon>
                <text id="3113" font-family="ArialMT, Arial" font-size="8.25" font-weight="normal" letter-spacing="-0.087" fill="#000000">
                    <tspan x="113" y="257">3113</tspan>
                </text>
                <text id="Office" font-family="ArialMT, Arial" font-size="8.25" font-weight="normal" letter-spacing="-0.42075" fill="#000000">
                    <tspan x="112" y="268">O</tspan>
                    <tspan x="117.996364" y="268" letter-spacing="-0.04125">ff</tspan>
                    <tspan x="122.349045" y="268" letter-spacing="0.4125">i</tspan>
                    <tspan x="124.594431" y="268" letter-spacing="-0.37125">c</tspan>
                    <tspan x="128.348181" y="268">e</tspan>
                </text>
                <polygon id="Stroke-145" stroke="#000000" stroke-width="1.2" stroke-linecap="round" stroke-linejoin="round" points="154 281 208 281 208 246 154 246"></polygon>
                <text id="3111" font-family="ArialMT, Arial" font-size="8.25" font-weight="normal" letter-spacing="-0.087" fill="#000000">
                    <tspan x="171" y="262">3111</tspan>
                </text>
                <polyline id="Stroke-160" stroke="#000000" stroke-width="1.2" stroke-linecap="round" stroke-linejoin="round" points="225 638 148.169592 638 148.169592 561.129393 0 561.129393 0 0"></polyline>
            </g>
        </g>
    </g>
</svg>